<svg xmlns="http://www.w3.org/2000/svg" viewBox="0 0 45.97 88.83"><defs><style>.cls-1{fill:#00afac;}.cls-2{fill:#fbb814;}</style></defs><title>sign</title><g id="Layer_2" data-name="Layer 2"><g id="Layer_1-2" data-name="Layer 1"><path class="cls-1" d="M46,56.47a1.07,1.07,0,0,1-.62,1c-1.92,1.12-3.81,2.29-5.67,3.49a178.33,178.33,0,0,0-19,13.92,90,90,0,0,0-8,7.69,46.69,46.69,0,0,0-4.48,5.63l-.34.48a.23.23,0,0,1-.28.1.22.22,0,0,1-.12-.27c0-.21.1-.42.16-.63A36.37,36.37,0,0,1,10,82a68.59,68.59,0,0,1,8.75-12.92c1.1-1.33,2.25-2.62,3.43-3.88a2.81,2.81,0,0,0,.59-.76.76.76,0,0,0-.59.12c-5.09,2.25-10.07,4.71-15,7.33Q4.06,73.63.93,75.41a2.49,2.49,0,0,1-.28.15c-.27.11-.41,0-.45-.25a2.26,2.26,0,0,1,0-.45c0-4.29,0-8.59,0-12.88A1.2,1.2,0,0,1,.7,61q6.16-5,12.62-9.61c3.67-2.62,7.39-5.16,11.23-7.52.12-.08.29-.11.33-.3a.87.87,0,0,0-.55.14c-5.74,2.17-11.45,4.45-17,7-2.15,1-4.28,2-6.37,3.14-.68.37-.78.32-.79-.43,0-.5,0-1,0-1.5C.09,48.07,0,44.26,0,40.45c0-.18,0-.35,0-.52a.71.71,0,0,1,.42-.73c.91-.49,1.8-1,2.71-1.52a156,156,0,0,1,23.65-10.4c1.32-.45,2.67-.85,4-1.28l1.7-.51c3-.82,6-1.55,9.06-2.1l1-.17a.34.34,0,0,1,.44.35c0,.21,0,.43,0,.65,0,2.12,0,4.25,0,6.37s0,4.12.06,6.18c0,.49,0,.54-.42.67a34.61,34.61,0,0,0-8.85,4.63c-3.13,2-6.1,4.29-9,6.59l-.27.24c.18.13.31,0,.43,0,4.71-1.61,9.47-3.07,14.29-4.31,1.94-.51,3.89-1,5.84-1.42.77-.19.86-.11.86.69C46,48.06,46,52.26,46,56.47Z"/><path class="cls-2" d="M42.28,12.37a5,5,0,0,1-.48,1.81,16.61,16.61,0,0,1-2.39,3.7,109.19,109.19,0,0,1-7.93,7.77c-3.82-3.84-8.19-8.23-12-12.08-.88-.88-.87-.63,0-1.51L31,.48c.66-.66.5-.6,1.19-.07a51.91,51.91,0,0,1,6.54,5.68,17.88,17.88,0,0,1,2.79,3.57A5,5,0,0,1,42.28,12.37Z"/></g></g></svg>